<svg width="8" height="22" viewBox="0 0 8 22" fill="none" xmlns="http://www.w3.org/2000/svg">
<path d="M0.680924 11.7315L7.31029 21.9504C7.32762 21.9773 7.34844 21.9941 7.37036 21.9987C7.39228 22.0033 7.41442 21.9956 7.43423 21.9765C7.45404 21.9574 7.47072 21.9277 7.48235 21.8907C7.49399 21.8538 7.5001 21.8111 7.5 21.7676V19.5241C7.5 19.3819 7.46618 19.2455 7.41029 19.1584L2.11621 11.0001L7.41029 2.8418C7.46765 2.75474 7.5 2.61833 7.5 2.47612V0.232653C7.5 0.0382004 7.38676 -0.0691853 7.31029 0.0498085L0.680924 10.2687C0.624578 10.3555 0.578998 10.4664 0.547647 10.5932C0.516295 10.7199 0.5 10.8591 0.5 11.0001C0.5 11.1412 0.516295 11.2803 0.547647 11.4071C0.578998 11.5338 0.624578 11.6448 0.680924 11.7315Z" fill="#394A4F"/>
</svg>
