<svg width="8" height="22" viewBox="0 0 8 22" fill="none" xmlns="http://www.w3.org/2000/svg">
<path d="M7.31908 10.2685L0.689706 0.0495652C0.672383 0.02265 0.651565 0.00592344 0.629642 0.00130619C0.60772 -0.00331106 0.585582 0.00436832 0.565771 0.0234626C0.54596 0.0425568 0.529281 0.0722916 0.517647 0.109252C0.506013 0.146212 0.499897 0.188898 0.500001 0.232409V2.47587C0.500001 2.61809 0.533825 2.75449 0.589707 2.84156L5.88379 10.9999L0.589707 19.1582C0.532354 19.2453 0.500001 19.3817 0.500001 19.5239V21.7673C0.500001 21.9618 0.613236 22.0692 0.689706 21.9502L7.31908 11.7313C7.37542 11.6445 7.421 11.5336 7.45235 11.4068C7.4837 11.2801 7.5 11.1409 7.5 10.9999C7.5 10.8588 7.4837 10.7197 7.45235 10.5929C7.421 10.4662 7.37542 10.3552 7.31908 10.2685Z" fill="#394A4F"/>
</svg>
