<svg width="18" height="18" viewBox="0 0 18 18" fill="none" xmlns="http://www.w3.org/2000/svg">
<path d="M10.0777 16.056C9.69658 16.4231 9.273 16.8155 9.00073 16.9037C8.67911 16.8015 8.15438 16.285 7.38686 15.5295C7.25653 15.4013 7.11812 15.2651 6.9708 15.121C4.11879 12.3328 1.0589 8.25278 1.02409 5.16367C1.01216 4.10686 1.34576 3.24511 2.04387 2.52912C2.95179 1.59803 4.1364 1.08525 5.37956 1.08525C6.60081 1.08525 7.76222 1.57459 8.64998 2.46314C8.84721 2.66054 9.15552 2.66054 9.3528 2.46314C10.2407 1.57459 11.4023 1.08525 12.6235 1.08525C13.8666 1.08525 15.0513 1.59803 15.9592 2.52907C17.3964 4.00311 17.3166 6.23053 15.722 9.14947C15.5803 9.40879 15.6638 9.74076 15.9084 9.89096C16.153 10.0412 16.4662 9.95271 16.6079 9.69334C18.9256 5.45083 17.9215 3.03154 16.6711 1.7491C15.5711 0.621197 14.1336 0 12.6234 0C11.296 0 10.0265 0.475936 9.00134 1.34929C7.97629 0.475882 6.70692 0 5.37951 0C3.86935 0 2.43193 0.621197 1.33199 1.74915C0.433172 2.67102 -0.0148287 3.82415 0.00037429 5.17659C0.0491056 9.49821 4.81664 14.4913 6.27669 15.9188C6.42093 16.0599 6.55653 16.1933 6.68437 16.319L6.69024 16.3248C7.76023 17.378 8.29735 17.9066 8.93464 17.9954C8.95676 17.9985 8.97907 18 9.00134 18C9.02361 18 9.04587 17.9985 9.06799 17.9954C9.58033 17.9241 10.0418 17.5568 10.7661 16.8592C10.9753 16.6577 10.9909 16.3146 10.8008 16.0927C10.6107 15.871 10.287 15.8545 10.0777 16.056Z" fill="#394A4F" stroke-width="0"/>
<path d="M10.0777 16.056C9.69658 16.4231 9.273 16.8155 9.00073 16.9037C8.67911 16.8015 8.15438 16.285 7.38686 15.5295C7.25653 15.4013 7.11812 15.2651 6.9708 15.121C4.11879 12.3328 1.0589 8.25278 1.02409 5.16367C1.01216 4.10686 1.34576 3.24511 2.04387 2.52912C2.95179 1.59803 4.1364 1.08525 5.37956 1.08525C6.60081 1.08525 7.76222 1.57459 8.64998 2.46314C8.84721 2.66054 9.15552 2.66054 9.3528 2.46314C10.2407 1.57459 11.4023 1.08525 12.6235 1.08525C13.8666 1.08525 15.0513 1.59803 15.9592 2.52907C17.3964 4.00311 17.3166 6.23053 15.722 9.14947C15.5803 9.40879 15.6638 9.74076 15.9084 9.89096C16.153 10.0412 16.4662 9.95271 16.6079 9.69334C18.9256 5.45083 17.9215 3.03154 16.6711 1.7491C15.5711 0.621197 14.1336 0 12.6234 0C11.296 0 10.0265 0.475936 9.00134 1.34929C7.97629 0.475882 6.70692 0 5.37951 0C3.86935 0 2.43193 0.621197 1.33199 1.74915C0.433172 2.67102 -0.0148287 3.82415 0.00037429 5.17659C0.0491056 9.49821 4.81664 14.4913 6.27669 15.9188C6.42093 16.0599 6.55653 16.1933 6.68437 16.319L6.69024 16.3248C7.76023 17.378 8.29735 17.9066 8.93464 17.9954C8.95676 17.9985 8.97907 18 9.00134 18C9.02361 18 9.04587 17.9985 9.06799 17.9954C9.58033 17.9241 10.0418 17.5568 10.7661 16.8592C10.9753 16.6577 10.9909 16.3146 10.8008 16.0927C10.6107 15.871 10.287 15.8545 10.0777 16.056Z" stroke="#394A4F" stroke-width="0"/>
<path d="M16.2542 10.7779H14.6102V9.0353C14.6102 8.73566 14.381 8.49268 14.0983 8.49268H12.0397C11.757 8.49268 11.5278 8.73566 11.5278 9.0353V10.7779H9.88383C9.60112 10.7779 9.37195 11.0209 9.37195 11.3205V13.5029C9.37195 13.8025 9.60112 14.0455 9.88383 14.0455H11.5278V15.7881C11.5278 16.0877 11.757 16.3307 12.0397 16.3307H14.0983C14.381 16.3307 14.6102 16.0877 14.6102 15.7881V14.0455H16.2542C16.5369 14.0455 16.7661 13.8025 16.7661 13.5029V11.3205C16.7661 11.0208 16.5369 10.7779 16.2542 10.7779ZM15.7423 12.9603H14.0983C13.8156 12.9603 13.5864 13.2033 13.5864 13.5029V15.2455H12.5516V13.5029C12.5516 13.2033 12.3224 12.9603 12.0397 12.9603H10.3957V11.8631H12.0397C12.3224 11.8631 12.5516 11.6201 12.5516 11.3205V9.57793H13.5864V11.3205C13.5864 11.6201 13.8156 11.8631 14.0983 11.8631H15.7423V12.9603Z" stroke-width="0" fill="#394A4F"/>
</svg>
