<svg width="32" height="32" viewBox="0 0 32 32" fill="none" xmlns="http://www.w3.org/2000/svg">
<path d="M5.83502 18.6799H4.33502C4.20241 18.6799 4.07524 18.6273 3.98147 18.5335C3.8877 18.4397 3.83502 18.3126 3.83502 18.1799V13.8199C3.83502 13.6873 3.8877 13.5602 3.98147 13.4664C4.07524 13.3726 4.20241 13.3199 4.33502 13.3199H5.83502C5.96763 13.3199 6.09481 13.3726 6.18858 13.4664C6.28234 13.5602 6.33502 13.6873 6.33502 13.8199V18.1799C6.33502 18.3126 6.28234 18.4397 6.18858 18.5335C6.09481 18.6273 5.96763 18.6799 5.83502 18.6799ZM4.83502 17.6799H5.33502V14.3199H4.83502V17.6799Z" stroke-width="0" fill="#394A4F"/>
<path d="M7.83502 19.795H5.83502C5.70241 19.795 5.57524 19.7423 5.48147 19.6485C5.3877 19.5547 5.33502 19.4276 5.33502 19.295V12.705C5.33502 12.5723 5.3877 12.4452 5.48147 12.3514C5.57524 12.2576 5.70241 12.205 5.83502 12.205H7.83502C7.90068 12.205 7.9657 12.2179 8.02636 12.243C8.08703 12.2681 8.14215 12.305 8.18858 12.3514C8.23501 12.3978 8.27183 12.453 8.29696 12.5136C8.32209 12.5743 8.33502 12.6393 8.33502 12.705V19.295C8.33502 19.3606 8.32209 19.4256 8.29696 19.4863C8.27183 19.547 8.23501 19.6021 8.18858 19.6485C8.14215 19.6949 8.08703 19.7318 8.02636 19.7569C7.9657 19.782 7.90068 19.795 7.83502 19.795ZM6.33502 18.795H7.33502V13.205H6.33502V18.795Z"  stroke-width="0" fill="#394A4F"/>
<path d="M11.16 21H7.83502C7.70241 21 7.57524 20.9473 7.48147 20.8536C7.3877 20.7598 7.33502 20.6326 7.33502 20.5V11.5C7.33502 11.3674 7.3877 11.2402 7.48147 11.1464C7.57524 11.0527 7.70241 11 7.83502 11H11.16C11.2926 11 11.4198 11.0527 11.5136 11.1464C11.6073 11.2402 11.66 11.3674 11.66 11.5V20.5C11.66 20.6326 11.6073 20.7598 11.5136 20.8536C11.4198 20.9473 11.2926 21 11.16 21ZM8.33502 20H10.66V12H8.33502V20Z" stroke-width="0" fill="#394A4F"/>
<path d="M27.665 18.6799H26.165C26.0324 18.6799 25.9052 18.6273 25.8114 18.5335C25.7177 18.4397 25.665 18.3126 25.665 18.1799V13.8199C25.665 13.6873 25.7177 13.5602 25.8114 13.4664C25.9052 13.3726 26.0324 13.3199 26.165 13.3199H27.665C27.7976 13.3199 27.9248 13.3726 28.0185 13.4664C28.1123 13.5602 28.165 13.6873 28.165 13.8199V18.1799C28.165 18.3126 28.1123 18.4397 28.0185 18.5335C27.9248 18.6273 27.7976 18.6799 27.665 18.6799ZM26.665 17.6799H27.165V14.3199H26.665V17.6799Z" stroke-width="0" fill="#394A4F"/>
<path d="M26.16 19.795H24.16C24.0274 19.795 23.9002 19.7423 23.8064 19.6485C23.7127 19.5547 23.66 19.4276 23.66 19.295V12.705C23.66 12.5723 23.7127 12.4452 23.8064 12.3514C23.9002 12.2576 24.0274 12.205 24.16 12.205H26.16C26.2926 12.205 26.4198 12.2576 26.5135 12.3514C26.6073 12.4452 26.66 12.5723 26.66 12.705V19.295C26.66 19.4276 26.6073 19.5547 26.5135 19.6485C26.4198 19.7423 26.2926 19.795 26.16 19.795ZM24.66 18.795H25.66V13.205H24.66V18.795Z" stroke-width="0" fill="#394A4F"/>
<path d="M24.16 21H20.835C20.7024 21 20.5752 20.9473 20.4815 20.8536C20.3877 20.7598 20.335 20.6326 20.335 20.5V11.5C20.335 11.3674 20.3877 11.2402 20.4815 11.1464C20.5752 11.0527 20.7024 11 20.835 11H24.16C24.2926 11 24.4198 11.0527 24.5136 11.1464C24.6073 11.2402 24.66 11.3674 24.66 11.5V20.5C24.66 20.6326 24.6073 20.7598 24.5136 20.8536C24.4198 20.9473 24.2926 21 24.16 21ZM21.335 20H23.66V12H21.335V20Z"  stroke-width="0" fill="#394A4F"/>
<path d="M20.835 17.5H11.16C11.0274 17.5 10.9002 17.4473 10.8064 17.3536C10.7127 17.2598 10.66 17.1326 10.66 17V15C10.66 14.8674 10.7127 14.7402 10.8064 14.6464C10.9002 14.5527 11.0274 14.5 11.16 14.5H20.835C20.9676 14.5 21.0948 14.5527 21.1885 14.6464C21.2823 14.7402 21.335 14.8674 21.335 15V17C21.335 17.1326 21.2823 17.2598 21.1885 17.3536C21.0948 17.4473 20.9676 17.5 20.835 17.5ZM11.66 16.5H20.335V15.5H11.66V16.5Z" stroke-width="0" fill="#394A4F"/>
</svg>
