<svg width="24" height="24" viewBox="0 0 24 24" fill="none" xmlns="http://www.w3.org/2000/svg">
<mask id="path-1-inside-1_616_3961" fill="white">
<path d="M23.3616 8.08641C22.8297 5.99788 21.7251 5.02527 19.885 5.02527H1.37163C0.688014 5.02501 0.131897 5.58112 0.131897 6.26501V15.7351C0.131897 16.3273 0.613988 16.8094 1.20646 16.8094H2.48624C2.63798 18.0133 3.66591 18.9482 4.91039 18.9482C6.15487 18.9482 7.1828 18.0133 7.33454 16.8094H17.5794C17.7311 18.0133 18.7593 18.9482 20.0038 18.9482C21.2483 18.9482 22.2762 18.0133 22.4279 16.8094H22.7746C23.3626 16.8094 23.8413 16.3307 23.8413 15.7427C23.8434 12.2643 23.811 9.85223 23.3616 8.08641ZM5.15249 10.8659C5.11245 10.8659 5.07978 10.8333 5.07978 10.7932V8.03188C5.07978 7.99184 5.11245 7.95917 5.15249 7.95917H9.05005V10.8657L5.15249 10.8659ZM9.8314 7.95944H13.8014V10.8659H9.8314V7.95944ZM14.583 7.95944H18.553V10.8659H14.583V7.95944ZM19.3346 7.95944H22.5146C22.5459 8.06218 22.5757 8.1686 22.6039 8.27925C22.8737 9.33827 22.9851 10.6734 23.0301 12.3736C21.8694 11.4829 20.6526 10.9932 19.3346 10.8873V7.95944ZM4.91013 18.1663C3.99284 18.1663 3.24626 17.42 3.24626 16.5024C3.24626 15.5849 3.99257 14.8386 4.91013 14.8386C5.82742 14.8386 6.574 15.5849 6.574 16.5024C6.57373 17.42 5.82742 18.1663 4.91013 18.1663ZM20.0038 18.1663C19.0862 18.1663 18.3396 17.42 18.3396 16.5024C18.3396 15.5849 19.0862 14.8386 20.0038 14.8386C20.9213 14.8386 21.6677 15.5849 21.6677 16.5024C21.6674 17.42 20.9211 18.1663 20.0038 18.1663ZM22.7746 16.0275H22.4021C22.1803 14.9058 21.1898 14.0572 20.0038 14.0572C18.8178 14.0572 17.827 14.9058 17.6052 16.0275H7.3082C7.08638 14.9058 6.09586 14.0572 4.90986 14.0572C3.72387 14.0572 2.73334 14.9058 2.51153 16.0275H1.2062C1.04471 16.0275 0.913253 15.8963 0.913253 15.7348V6.26501C0.913253 6.01237 1.11873 5.80689 1.37163 5.80689H19.8847C20.989 5.80689 21.723 6.22786 22.2064 7.17782H5.15249C4.68146 7.17782 4.29816 7.56112 4.29816 8.03214V10.7932C4.29816 11.2643 4.68146 11.6476 5.15249 11.6476H18.935C20.4113 11.6815 21.7585 12.2608 23.0496 13.4073C23.0583 14.126 23.0599 14.9021 23.0594 15.7424C23.0594 15.8997 22.9316 16.0275 22.7746 16.0275Z"/>
</mask>
<path d="M23.3616 8.08641C22.8297 5.99788 21.7251 5.02527 19.885 5.02527H1.37163C0.688014 5.02501 0.131897 5.58112 0.131897 6.26501V15.7351C0.131897 16.3273 0.613988 16.8094 1.20646 16.8094H2.48624C2.63798 18.0133 3.66591 18.9482 4.91039 18.9482C6.15487 18.9482 7.1828 18.0133 7.33454 16.8094H17.5794C17.7311 18.0133 18.7593 18.9482 20.0038 18.9482C21.2483 18.9482 22.2762 18.0133 22.4279 16.8094H22.7746C23.3626 16.8094 23.8413 16.3307 23.8413 15.7427C23.8434 12.2643 23.811 9.85223 23.3616 8.08641ZM5.15249 10.8659C5.11245 10.8659 5.07978 10.8333 5.07978 10.7932V8.03188C5.07978 7.99184 5.11245 7.95917 5.15249 7.95917H9.05005V10.8657L5.15249 10.8659ZM9.8314 7.95944H13.8014V10.8659H9.8314V7.95944ZM14.583 7.95944H18.553V10.8659H14.583V7.95944ZM19.3346 7.95944H22.5146C22.5459 8.06218 22.5757 8.1686 22.6039 8.27925C22.8737 9.33827 22.9851 10.6734 23.0301 12.3736C21.8694 11.4829 20.6526 10.9932 19.3346 10.8873V7.95944ZM4.91013 18.1663C3.99284 18.1663 3.24626 17.42 3.24626 16.5024C3.24626 15.5849 3.99257 14.8386 4.91013 14.8386C5.82742 14.8386 6.574 15.5849 6.574 16.5024C6.57373 17.42 5.82742 18.1663 4.91013 18.1663ZM20.0038 18.1663C19.0862 18.1663 18.3396 17.42 18.3396 16.5024C18.3396 15.5849 19.0862 14.8386 20.0038 14.8386C20.9213 14.8386 21.6677 15.5849 21.6677 16.5024C21.6674 17.42 20.9211 18.1663 20.0038 18.1663ZM22.7746 16.0275H22.4021C22.1803 14.9058 21.1898 14.0572 20.0038 14.0572C18.8178 14.0572 17.827 14.9058 17.6052 16.0275H7.3082C7.08638 14.9058 6.09586 14.0572 4.90986 14.0572C3.72387 14.0572 2.73334 14.9058 2.51153 16.0275H1.2062C1.04471 16.0275 0.913253 15.8963 0.913253 15.7348V6.26501C0.913253 6.01237 1.11873 5.80689 1.37163 5.80689H19.8847C20.989 5.80689 21.723 6.22786 22.2064 7.17782H5.15249C4.68146 7.17782 4.29816 7.56112 4.29816 8.03214V10.7932C4.29816 11.2643 4.68146 11.6476 5.15249 11.6476H18.935C20.4113 11.6815 21.7585 12.2608 23.0496 13.4073C23.0583 14.126 23.0599 14.9021 23.0594 15.7424C23.0594 15.8997 22.9316 16.0275 22.7746 16.0275Z" fill="black"/>
<path d="M23.3616 8.08641L26.0847 7.39333L26.0846 7.39293L23.3616 8.08641ZM1.37163 5.02527L1.37055 7.83527H1.37163V5.02527ZM2.48624 16.8094L5.27418 16.458L4.9643 13.9994H2.48624V16.8094ZM7.33454 16.8094V13.9994H4.85648L4.5466 16.458L7.33454 16.8094ZM17.5794 16.8094L20.3673 16.458L20.0574 13.9994H17.5794V16.8094ZM22.4279 16.8094V13.9994H19.9499L19.64 16.458L22.4279 16.8094ZM23.8413 15.7427L21.0313 15.741V15.7427H23.8413ZM5.15249 10.8659L5.15249 13.6759L5.15268 13.6759L5.15249 10.8659ZM9.05005 7.95917H11.86V5.14917H9.05005V7.95917ZM9.05005 10.8657L9.05024 13.6757L11.86 13.6755V10.8657H9.05005ZM9.8314 7.95944V5.14944H7.0214V7.95944H9.8314ZM13.8014 7.95944H16.6114V5.14944H13.8014V7.95944ZM13.8014 10.8659V13.6759H16.6114V10.8659H13.8014ZM9.8314 10.8659H7.0214V13.6759H9.8314V10.8659ZM14.583 7.95944V5.14944H11.773V7.95944H14.583ZM18.553 7.95944H21.363V5.14944H18.553V7.95944ZM18.553 10.8659V13.6759H21.363V10.8659H18.553ZM14.583 10.8659H11.773V13.6759H14.583V10.8659ZM19.3346 7.95944V5.14944H16.5246V7.95944H19.3346ZM22.5146 7.95944L25.2023 7.13935L24.5951 5.14944H22.5146V7.95944ZM22.6039 8.27925L25.327 7.58562L25.3269 7.58553L22.6039 8.27925ZM23.0301 12.3736L21.3195 14.6029L25.9953 18.1909L25.8392 12.2992L23.0301 12.3736ZM19.3346 10.8873H16.5246V13.4805L19.1096 13.6883L19.3346 10.8873ZM6.574 16.5024L9.384 16.5033V16.5024H6.574ZM21.6677 16.5024L24.4777 16.5033V16.5024H21.6677ZM22.4021 16.0275L19.6455 16.5726L20.0934 18.8375H22.4021V16.0275ZM17.6052 16.0275V18.8375H19.9139L20.3618 16.5726L17.6052 16.0275ZM7.3082 16.0275L4.55158 16.5726L4.99945 18.8375H7.3082V16.0275ZM2.51153 16.0275V18.8375H4.82028L5.26815 16.5726L2.51153 16.0275ZM22.2064 7.17782V9.98782H26.7892L24.7108 5.9034L22.2064 7.17782ZM18.935 11.6476L18.9997 8.83831L18.9674 8.83756H18.935V11.6476ZM23.0496 13.4073L25.8594 13.3733L25.8444 12.1311L24.9154 11.3062L23.0496 13.4073ZM23.0594 15.7424L20.2494 15.7407V15.7424L23.0594 15.7424ZM26.0846 7.39293C25.7375 6.02993 25.1166 4.67251 23.9708 3.66367C22.7751 2.61084 21.3264 2.21527 19.885 2.21527V7.83527C20.0992 7.83527 20.2051 7.86365 20.2393 7.87509C20.2563 7.88075 20.2612 7.88403 20.2589 7.8827C20.2564 7.88126 20.255 7.87995 20.2569 7.88162C20.2582 7.88274 20.3057 7.92374 20.3782 8.05853C20.4537 8.19889 20.5486 8.42718 20.6385 8.77989L26.0846 7.39293ZM19.885 2.21527H1.37163V7.83527H19.885V2.21527ZM1.37272 2.21527C-0.864267 2.21441 -2.6781 4.0298 -2.6781 6.26501H2.9419C2.9419 7.13244 2.24029 7.8356 1.37055 7.83527L1.37272 2.21527ZM-2.6781 6.26501V15.7351H2.9419V6.26501H-2.6781ZM-2.6781 15.7351C-2.6781 17.8796 -0.937483 19.6194 1.20646 19.6194V13.9994C2.16546 13.9994 2.9419 14.7749 2.9419 15.7351H-2.6781ZM1.20646 19.6194H2.48624V13.9994H1.20646V19.6194ZM-0.301705 17.1607C0.0241153 19.7458 2.22602 21.7582 4.91039 21.7582V16.1382C5.10581 16.1382 5.25184 16.2807 5.27418 16.458L-0.301705 17.1607ZM4.91039 21.7582C7.59476 21.7582 9.79666 19.7458 10.1225 17.1607L4.5466 16.458C4.56894 16.2807 4.71497 16.1382 4.91039 16.1382V21.7582ZM7.33454 19.6194H17.5794V13.9994H7.33454V19.6194ZM14.7914 17.1607C15.1173 19.7462 17.3198 21.7582 20.0038 21.7582V16.1382C20.1988 16.1382 20.3449 16.2803 20.3673 16.458L14.7914 17.1607ZM20.0038 21.7582C22.6881 21.7582 24.8901 19.7458 25.2159 17.1607L19.64 16.458C19.6623 16.2807 19.8084 16.1382 20.0038 16.1382V21.7582ZM22.4279 19.6194H22.7746V13.9994H22.4279V19.6194ZM22.7746 19.6194C24.9145 19.6194 26.6513 17.8826 26.6513 15.7427H21.0313C21.0313 14.7788 21.8107 13.9994 22.7746 13.9994V19.6194ZM26.6513 15.7444C26.6533 12.3901 26.6403 9.57624 26.0847 7.39333L20.6384 8.7795C20.9816 10.1282 21.0335 12.1385 21.0313 15.741L26.6513 15.7444ZM5.15249 8.05594C6.66432 8.05594 7.88978 9.2813 7.88978 10.7932H2.26978C2.26978 12.3852 3.56058 13.6759 5.15249 13.6759V8.05594ZM7.88978 10.7932V8.03188H2.26978V10.7932H7.88978ZM7.88978 8.03188C7.88978 9.54376 6.66437 10.7692 5.15249 10.7692V5.14917C3.56053 5.14917 2.26978 6.43992 2.26978 8.03188H7.88978ZM5.15249 10.7692H9.05005V5.14917H5.15249V10.7692ZM6.24005 7.95917V10.8657H11.86V7.95917H6.24005ZM9.04986 8.05568L5.1523 8.05594L5.15268 13.6759L9.05024 13.6757L9.04986 8.05568ZM9.8314 10.7694H13.8014V5.14944H9.8314V10.7694ZM10.9914 7.95944V10.8659H16.6114V7.95944H10.9914ZM13.8014 8.05594H9.8314V13.6759H13.8014V8.05594ZM12.6414 10.8659V7.95944H7.0214V10.8659H12.6414ZM14.583 10.7694H18.553V5.14944H14.583V10.7694ZM15.743 7.95944V10.8659H21.363V7.95944H15.743ZM18.553 8.05594H14.583V13.6759H18.553V8.05594ZM17.393 10.8659V7.95944H11.773V10.8659H17.393ZM19.3346 10.7694H22.5146V5.14944H19.3346V10.7694ZM19.8269 8.77952C19.8451 8.83904 19.8631 8.9033 19.8809 8.97297L25.3269 7.58553C25.2883 7.43391 25.2468 7.28531 25.2023 7.13935L19.8269 8.77952ZM19.8809 8.97288C20.0689 9.71112 20.177 10.7829 20.2211 12.448L25.8392 12.2992C25.7932 10.5638 25.6784 8.96541 25.327 7.58562L19.8809 8.97288ZM24.7408 10.1443C23.1984 8.9607 21.475 8.2402 19.5597 8.08631L19.1096 13.6883C19.8303 13.7462 20.5405 14.0051 21.3195 14.6029L24.7408 10.1443ZM22.1446 10.8873V7.95944H16.5246V10.8873H22.1446ZM4.91013 15.3563C5.54447 15.3563 6.05626 15.8678 6.05626 16.5024H0.436255C0.436255 18.9722 2.44121 20.9763 4.91013 20.9763V15.3563ZM6.05626 16.5024C6.05626 17.1368 5.54449 17.6486 4.91013 17.6486V12.0286C2.44066 12.0286 0.436255 14.033 0.436255 16.5024H6.05626ZM4.91013 17.6486C4.27579 17.6486 3.764 17.1371 3.764 16.5024H9.384C9.384 14.0327 7.37905 12.0286 4.91013 12.0286V17.6486ZM3.764 16.5016C3.76418 15.8684 4.27505 15.3563 4.91013 15.3563V20.9763C7.37978 20.9763 9.38329 18.9717 9.384 16.5033L3.764 16.5016ZM20.0038 15.3563C20.6376 15.3563 21.1496 15.8675 21.1496 16.5024H15.5296C15.5296 18.9725 17.5349 20.9763 20.0038 20.9763V15.3563ZM21.1496 16.5024C21.1496 17.1374 20.6376 17.6486 20.0038 17.6486V12.0286C17.5349 12.0286 15.5296 14.0324 15.5296 16.5024H21.1496ZM20.0038 17.6486C19.3694 17.6486 18.8577 17.1368 18.8577 16.5024H24.4777C24.4777 14.033 22.4732 12.0286 20.0038 12.0286V17.6486ZM18.8577 16.5016C18.8578 15.8684 19.3687 15.3563 20.0038 15.3563V20.9763C22.4734 20.9763 24.4769 18.9717 24.4776 16.5033L18.8577 16.5016ZM22.7746 13.2175H22.4021V18.8375H22.7746V13.2175ZM25.1587 15.4824C24.6823 13.0732 22.5607 11.2472 20.0038 11.2472V16.8672C19.8189 16.8672 19.6783 16.7383 19.6455 16.5726L25.1587 15.4824ZM20.0038 11.2472C17.4472 11.2472 15.325 13.0728 14.8486 15.4824L20.3618 16.5726C20.329 16.7387 20.1883 16.8672 20.0038 16.8672V11.2472ZM17.6052 13.2175H7.3082V18.8375H17.6052V13.2175ZM10.0648 15.4824C9.58841 13.0732 7.46678 11.2472 4.90986 11.2472V16.8672C4.72494 16.8672 4.58435 16.7383 4.55158 16.5726L10.0648 15.4824ZM4.90986 11.2472C2.35294 11.2472 0.231312 13.0732 -0.245092 15.4824L5.26815 16.5726C5.23537 16.7383 5.09479 16.8672 4.90986 16.8672V11.2472ZM2.51153 13.2175H1.2062V18.8375H2.51153V13.2175ZM1.2062 13.2175C2.59334 13.2175 3.72325 14.3411 3.72325 15.7348H-1.89675C-1.89675 17.4515 -0.50392 18.8375 1.2062 18.8375V13.2175ZM3.72325 15.7348V6.26501H-1.89675V15.7348H3.72325ZM3.72325 6.26501C3.72325 7.56534 2.6696 8.61689 1.37163 8.61689V2.99689C-0.432136 2.99689 -1.89675 4.4594 -1.89675 6.26501H3.72325ZM1.37163 8.61689H19.8847V2.99689H1.37163V8.61689ZM19.8847 8.61689C19.9843 8.61689 20.0178 8.62657 20.004 8.62333C19.9857 8.61903 19.9294 8.60258 19.8569 8.56006C19.7832 8.51684 19.7286 8.46768 19.6961 8.43117C19.6668 8.39826 19.6732 8.39561 19.702 8.45223L24.7108 5.9034C24.2778 5.05255 23.6357 4.26099 22.6999 3.71217C21.7775 3.17125 20.7924 2.99689 19.8847 2.99689V8.61689ZM22.2064 4.36782H5.15249V9.98782H22.2064V4.36782ZM5.15249 4.36782C3.12954 4.36782 1.48816 6.0092 1.48816 8.03214H7.10816C7.10816 9.11304 6.23338 9.98782 5.15249 9.98782V4.36782ZM1.48816 8.03214V10.7932H7.10816V8.03214H1.48816ZM1.48816 10.7932C1.48816 12.8162 3.12954 14.4576 5.15249 14.4576V8.83756C6.23338 8.83756 7.10816 9.71234 7.10816 10.7932H1.48816ZM5.15249 14.4576H18.935V8.83756H5.15249V14.4576ZM18.8703 14.4568C19.5664 14.4728 20.297 14.721 21.1838 15.5085L24.9154 11.3062C23.2201 9.8007 21.2562 8.89025 18.9997 8.83831L18.8703 14.4568ZM20.2398 13.4413C20.2483 14.1415 20.2499 14.9031 20.2494 15.7407L25.8694 15.7442C25.8699 14.9011 25.8684 14.1105 25.8594 13.3733L20.2398 13.4413ZM20.2494 15.7424C20.2494 14.3495 21.378 13.2175 22.7746 13.2175V18.8375C24.4852 18.8375 25.8694 17.4499 25.8694 15.7424L20.2494 15.7424Z" fill="#394A4F" mask="url(#path-1-inside-1_616_3961)"/>
<path d="M4.91119 17.0615C5.21992 17.0615 5.4702 16.8112 5.4702 16.5025C5.4702 16.1938 5.21992 15.9435 4.91119 15.9435C4.60245 15.9435 4.35217 16.1938 4.35217 16.5025C4.35217 16.8112 4.60245 17.0615 4.91119 17.0615Z" fill="black"/>
<path d="M20.0035 17.0615C20.3123 17.0615 20.5625 16.8112 20.5625 16.5025C20.5625 16.1938 20.3123 15.9435 20.0035 15.9435C19.6948 15.9435 19.4445 16.1938 19.4445 16.5025C19.4445 16.8112 19.6948 17.0615 20.0035 17.0615Z" fill="black"/>
</svg>
